<?xml version="1.0" encoding="UTF-8"?><svg id="Calque_1" xmlns="http://www.w3.org/2000/svg" width="16" height="17.13" viewBox="0 0 16 17.13"><rect y="1.13" width="16" height="16" style="fill:#fff; opacity:0;"/><path d="M8,2.84h0c-.18,0-.32-.12-.32-.24V.24s.14-.24.32-.24h0c.18,0,.32.12.32.24v2.35s-.14.24-.32.24Z" style="fill:#212322;"/><path d="M5.3,3.34l-1.61-1.46c-.09-.08-.05-.22.12-.3h0c.15-.08.37-.08.46,0l1.61,1.46c.09.08.05.22-.12.3h0c-.15.08-.37.08-.46,0Z" style="fill:#212322;"/><path d="M10.2,3.3h0c-.15-.09-.2-.22-.1-.31l1.66-1.38c.09-.08.3-.07.45.02h0c.15.09.2.22.1.31l-1.66,1.38c-.09.08-.3.07-.45-.02Z" style="fill:#212322;"/><rect x="4.35" y="7.1" width="7.31" height="8.44" style="fill:#c0ab8f;"/><path d="M3.83,15.65c0,.26.21.48.48.48h7.39c.23,0,.41-.16.46-.38v-4s-.02-.06-.02-.1h.02v-4.43c-.03-.24-.22-.43-.47-.43h-.82c-.22,0-.41-.15-.46-.36-.27-1.09-1.26-2.5-2.43-2.5s-2.14,1.42-2.41,2.5c-.05.21-.24.36-.46.36h-.82c-.26,0-.48.21-.48.48v4.38c0,.07.02.12,0,.18v2.26c.04.09.03.2.03.3v1.26ZM6.46,5.93c.34-.48.95-1.49,1.58-1.49.7,0,1.27,1.07,1.6,1.64.18.32-.05.72-.41.72h-2.31c-.45,0-.72-.5-.46-.87ZM4.43,12.68v-4.83c0-.26.21-.47.47-.48h0s6.21,0,6.21,0c.26,0,.48.21.48.48v6.95c0,.41-.33.73-.73.73h-5.95c-.26,0-.48-.21-.48-.48v-2.38Z" style="fill:#212322;"/></svg>