<?xml version="1.0" encoding="UTF-8"?><svg id="Calque_1" xmlns="http://www.w3.org/2000/svg" width="107.82" height="141.9" viewBox="0 0 107.82 141.9"><path d="M87.43,99.04v-35.19c0-2.12-1.72-3.84-3.84-3.84h-6.57c-1.75,0-3.29-1.18-3.71-2.88-2.14-8.73-10.03-15.23-19.42-15.23s-17.27,6.5-19.42,15.23c-.42,1.7-1.96,2.88-3.71,2.88h-6.57c-2.12,0-3.84,1.72-3.84,3.84v35.19c0,2.12-1.72,3.84-3.84,3.84h-6.35c-2.12,0-3.84,1.72-3.84,3.84v31.36c0,2.12,1.72,3.84,3.84,3.84h87.42c2.12,0,3.84-1.72,3.84-3.84v-31.36c0-2.12-1.72-3.84-3.84-3.84h-6.35c-2.12,0-3.84-1.72-3.84-3.84ZM53.91,46.62c5.64,0,10.56,3.07,13.2,7.63,1.48,2.55-.37,5.76-3.33,5.76h-18.59c-3.58,0-5.78-4.06-3.7-6.98,2.77-3.88,7.3-6.41,12.42-6.41ZM28.95,64.74h49.92c2.12,0,3.84,1.72,3.84,3.84v47.86c0,3.26-2.64,5.9-5.9,5.9H28.95c-2.12,0-3.84-1.72-3.84-3.84v-11.11h0v-4.51h0v-34.3c0-2.12,1.72-3.84,3.84-3.84ZM93.11,137.39H14.71c-2.12,0-3.84-1.72-3.84-3.84v-22.34c0-2.12,1.72-3.84,3.84-3.84h0c3.13,0,5.67,2.54,5.67,5.67v10.17c0,2.12,1.72,3.84,3.84,3.84h59.38c2.12,0,3.84-1.72,3.84-3.84v-12c0-2.12,1.72-3.84,3.84-3.84h1.84c2.12,0,3.84,1.72,3.84,3.84v22.34c0,2.12-1.72,3.84-3.84,3.84Z" style="fill:#212322;"/><rect x="51.32" y="0" width="5.59" height="31.78" rx="2.79" ry="2.79" style="fill:#212322;"/><rect x="28.96" y="4.47" width="5.59" height="31.78" rx="2.79" ry="2.79" transform="translate(-5.5 14.41) rotate(-23.6)" style="fill:#212322;"/><rect x="11.29" y="20.94" width="5.59" height="31.78" rx="2.79" ry="2.79" transform="translate(-24.8 30.32) rotate(-59.57)" style="fill:#212322;"/><rect x="60.17" y="17.57" width="31.78" height="5.59" rx="2.79" ry="2.79" transform="translate(26.95 81.91) rotate(-66.4)" style="fill:#212322;"/><rect x="77.84" y="34.03" width="31.78" height="5.59" rx="2.79" ry="2.79" transform="translate(-5.74 52.56) rotate(-30.44)" style="fill:#212322;"/></svg>