<?xml version="1.0" encoding="UTF-8"?><svg id="Calque_1" xmlns="http://www.w3.org/2000/svg" width="107.82" height="210.26" viewBox="0 0 107.82 210.26"><path d="M87.43,99.04v-35.19c0-2.12-1.72-3.84-3.84-3.84h-6.57c-1.75,0-3.29-1.18-3.71-2.88-2.14-8.73-10.03-15.23-19.42-15.23s-17.27,6.5-19.42,15.23c-.42,1.7-1.96,2.88-3.71,2.88h-6.57c-2.12,0-3.84,1.72-3.84,3.84v35.19c0,2.12-1.72,3.84-3.84,3.84h-6.35c-2.12,0-3.84,1.72-3.84,3.84v31.36c0,2.12,1.72,3.84,3.84,3.84h87.42c2.12,0,3.84-1.72,3.84-3.84v-31.36c0-2.12-1.72-3.84-3.84-3.84h-6.35c-2.12,0-3.84-1.72-3.84-3.84ZM53.91,46.62c5.64,0,10.56,3.07,13.2,7.63,1.48,2.55-.37,5.76-3.33,5.76h-18.59c-3.58,0-5.78-4.06-3.7-6.98,2.77-3.88,7.3-6.41,12.42-6.41ZM28.95,64.74h49.92c2.12,0,3.84,1.72,3.84,3.84v47.86c0,3.26-2.64,5.9-5.9,5.9H28.95c-2.12,0-3.84-1.72-3.84-3.84v-11.11h0v-4.51h0v-34.3c0-2.12,1.72-3.84,3.84-3.84ZM93.11,137.39H14.71c-2.12,0-3.84-1.72-3.84-3.84v-22.34c0-2.12,1.72-3.84,3.84-3.84h0c3.13,0,5.67,2.54,5.67,5.67v10.17c0,2.12,1.72,3.84,3.84,3.84h59.38c2.12,0,3.84-1.72,3.84-3.84v-12c0-2.12,1.72-3.84,3.84-3.84h1.84c2.12,0,3.84,1.72,3.84,3.84v22.34c0,2.12-1.72,3.84-3.84,3.84Z" style="fill:#212322;"/><rect x="51.32" y="0" width="5.59" height="31.78" rx="2.79" ry="2.79" style="fill:#212322;"/><rect x="28.96" y="4.47" width="5.59" height="31.78" rx="2.79" ry="2.79" transform="translate(-5.5 14.41) rotate(-23.6)" style="fill:#212322;"/><rect x="11.29" y="20.94" width="5.59" height="31.78" rx="2.79" ry="2.79" transform="translate(-24.8 30.32) rotate(-59.57)" style="fill:#212322;"/><rect x="60.17" y="17.57" width="31.78" height="5.59" rx="2.79" ry="2.79" transform="translate(26.95 81.91) rotate(-66.4)" style="fill:#212322;"/><rect x="77.84" y="34.03" width="31.78" height="5.59" rx="2.79" ry="2.79" transform="translate(-5.74 52.56) rotate(-30.44)" style="fill:#212322;"/><path d="M6.51,149.45h13.57c.77,0,1.41.15,1.91.44s.89.67,1.15,1.13c.26.46.39.94.39,1.45s-.13,1-.4,1.47c-.26.48-.66.87-1.2,1.16-.53.3-1.2.45-2.01.45-.01,0-.01,0,0,.02.93,0,1.7.17,2.31.5.61.33,1.06.76,1.36,1.28s.45,1.06.45,1.64c0,.43-.08.84-.25,1.24-.17.4-.42.77-.75,1.1-.33.33-.75.59-1.24.78-.49.19-1.07.28-1.72.28H6.51v-12.94ZM13.32,153.81s-.02,0-.02.02v1.53h2.38c.21,0,.38-.04.52-.11s.24-.17.31-.29c.07-.12.1-.25.1-.39,0-.2-.07-.37-.2-.53-.13-.16-.33-.23-.58-.23h-2.52ZM13.3,156.62v1.16h2.47c.31,0,.54-.08.7-.24.16-.16.23-.34.23-.55,0-.1-.02-.2-.05-.28-.03-.09-.08-.17-.15-.24-.06-.07-.14-.13-.24-.17-.1-.04-.21-.06-.34-.06h-2.6l-.02.02v.38Z" style="fill:#212322;"/><path d="M24.55,149.45h12.47c1.01,0,1.85.18,2.52.54.67.36,1.17.83,1.5,1.4.33.57.5,1.17.5,1.8s-.18,1.29-.54,1.91c-.36.62-.91,1.12-1.64,1.51-.73.39-1.64.59-2.73.59h-1.28v.07h3.92l2.66,5.12h-8.19c-.22-.59-.44-1.17-.66-1.76-.22-.59-.45-1.17-.67-1.76-.22-.59-.45-1.17-.68-1.76h2c.23,0,.43-.03.61-.1.18-.07.32-.16.44-.28s.2-.24.26-.39c.06-.14.09-.29.09-.44,0-.21-.05-.4-.16-.59-.1-.18-.26-.33-.47-.45-.21-.12-.47-.17-.78-.17h-1.97s-.02.02-.03.02c0,0,0,0,0,.02v2.3c0,.09,0,.12,0,.09v5.26h-7.16v-12.94Z" style="fill:#212322;"/><path d="M56.56,149.83c1.4.6,2.46,1.42,3.16,2.47.7,1.05,1.05,2.25,1.05,3.61,0,.74-.11,1.45-.33,2.13-.22.68-.56,1.32-1.03,1.91s-1.08,1.11-1.83,1.55c-.75.44-1.64.79-2.68,1.03-1.04.25-2.25.37-3.61.37-.98,0-1.87-.07-2.68-.2-.81-.13-1.54-.32-2.2-.55-.66-.24-1.23-.52-1.73-.85-.5-.33-.93-.7-1.29-1.11-.36-.41-.66-.84-.9-1.3-.24-.46-.41-.94-.52-1.45s-.16-1.02-.16-1.53c0-.68.09-1.32.27-1.93.18-.61.44-1.17.79-1.69.35-.52.79-.98,1.31-1.39.52-.41,1.14-.76,1.84-1.05.7-.29,1.49-.52,2.37-.67.88-.16,1.85-.23,2.91-.23,2.12,0,3.87.3,5.28.9ZM50.28,154.55c-.28.09-.51.2-.67.34-.17.14-.29.3-.36.48s-.11.36-.11.54c0,.24.07.48.21.71s.37.42.69.57c.32.15.75.22,1.28.22.31,0,.58-.03.82-.09.24-.06.44-.13.6-.23s.3-.21.41-.34c.11-.13.19-.27.23-.41.05-.14.07-.29.07-.44,0-.17-.04-.34-.11-.52s-.19-.33-.35-.47c-.16-.14-.38-.26-.66-.35-.28-.09-.62-.14-1.02-.14s-.74.04-1.03.13Z" style="fill:#212322;"/><path d="M77.07,149.45h6.99c-.25,1.08-.5,2.16-.75,3.23-.25,1.08-.5,2.15-.75,3.23-.25,1.08-.5,2.16-.75,3.23-.25,1.08-.49,2.15-.73,3.23h-8.02l-1.03-6.49s0-.02-.02-.03c-.01,0-.02,0-.03,0,0,0,0,.01,0,.03l-1.02,6.49h-7.49c-.21-.86-.41-1.72-.62-2.59s-.42-1.72-.63-2.59c-.21-.86-.42-1.72-.63-2.59s-.42-1.72-.63-2.59c-.21-.86-.42-1.72-.63-2.59h7.35c.09.59.18,1.18.27,1.77.09.59.17,1.18.26,1.77.09.59.18,1.18.27,1.77.09.59.18,1.18.26,1.77h.09l.97-7.07h5.19l1.02,7.07h.03c.17-1.18.35-2.36.53-3.54.18-1.17.35-2.35.53-3.54Z" style="fill:#212322;"/><path d="M94.67,149.45h6.64v12.94h-7.99l-2.17-6.21s0-.02,0-.02h-.02s0,0,0,.02v6.21h-6.64v-12.94h7.73l2.43,7.16h.03s0,0,0-.02v-7.14Z" style="fill:#212322;"/><path d="M6.84,167.64h23.92c1.36,0,2.48.26,3.37.78.89.52,1.57,1.18,2.02,1.99.46.81.68,1.66.68,2.55s-.23,1.76-.7,2.6c-.47.84-1.17,1.53-2.11,2.05-.94.53-2.12.79-3.54.79-.02,0-.02.01,0,.03,1.64,0,3,.29,4.07.88,1.07.59,1.87,1.34,2.4,2.25.53.91.79,1.87.79,2.89,0,.75-.15,1.48-.44,2.19-.29.71-.73,1.35-1.32,1.93-.59.58-1.32,1.03-2.19,1.37-.87.33-1.88.5-3.04.5H6.84v-22.8ZM18.85,175.33s-.03.01-.03.03v2.71h4.19c.36,0,.67-.07.91-.2.24-.13.43-.3.55-.52s.18-.44.18-.68c0-.34-.12-.65-.35-.93-.23-.27-.57-.41-1.02-.41h-4.44ZM18.82,180.29v2.04h4.35c.55,0,.96-.14,1.23-.43.27-.28.41-.61.41-.97,0-.18-.03-.35-.09-.5-.06-.15-.15-.29-.26-.43-.11-.13-.25-.23-.43-.3s-.37-.11-.59-.11h-4.59l-.03.03v.67Z" style="fill:#212322;"/><path d="M62.28,167.64c.36,1.26.72,2.52,1.08,3.78.35,1.27.71,2.53,1.06,3.8.35,1.27.71,2.53,1.08,3.8.36,1.27.72,2.53,1.08,3.8.35,1.27.71,2.53,1.06,3.8.35,1.27.71,2.54,1.08,3.81h-13.56l-.52-2.98h-4.13l-.52,2.98h-12.98c.37-1.28.72-2.55,1.08-3.81.35-1.27.71-2.53,1.06-3.8.35-1.27.71-2.53,1.06-3.8.35-1.27.71-2.53,1.06-3.8.35-1.27.71-2.53,1.06-3.8.35-1.27.7-2.53,1.05-3.78h18.88ZM50.88,185.33h3.37s.03-.01.03-.03c-.16-.99-.31-1.87-.44-2.63-.13-.76-.27-1.57-.41-2.43-.14-.86-.27-1.68-.4-2.45-.12-.77-.27-1.64-.46-2.61h-.03c-.16.97-.31,1.84-.44,2.61-.13.77-.27,1.59-.41,2.45-.14.86-.27,1.67-.4,2.43s-.26,1.64-.43,2.63v.03Z" style="fill:#212322;"/><path d="M84.32,166.73c3.61,0,6.59.45,8.94,1.34,2.35.89,4.15,2.1,5.41,3.63,1.26,1.53,2.05,3.26,2.37,5.18l-13.13,3.1c.22-.77.23-1.44.03-2.01-.2-.57-.61-1.01-1.22-1.34-.61-.32-1.42-.49-2.43-.49-.95,0-1.71.13-2.26.4-.56.26-.95.59-1.19.99-.23.4-.35.82-.35,1.26,0,.32.07.63.21.93s.37.56.67.81c.3.24.7.44,1.19.58.49.14,1.06.21,1.73.21,1.03,0,1.83-.12,2.4-.35.57-.23.97-.56,1.22-.99-.32,1.2-.65,2.4-.97,3.62-.32,1.22-.65,2.44-.99,3.66-.33,1.23-.66,2.44-.99,3.63-.55.1-1.08.18-1.6.23-.52.05-1.13.08-1.84.08-1.54,0-2.95-.14-4.24-.43-1.29-.28-2.45-.68-3.48-1.2-1.03-.52-1.94-1.14-2.72-1.87-.78-.73-1.43-1.54-1.95-2.45-.52-.9-.91-1.87-1.17-2.92-.26-1.04-.4-2.13-.4-3.27,0-.93.1-1.84.29-2.72.19-.88.5-1.73.91-2.55.42-.82.95-1.59,1.6-2.31.65-.72,1.41-1.37,2.29-1.94s1.9-1.08,3.06-1.5,2.45-.75,3.88-.97c1.43-.22,3-.33,4.73-.33ZM87.91,190.44v-10.46h12.89v10.46h-12.89Z" style="fill:#212322;"/><path d="M14.89,204.11s0,.02,0,.03c0,0,.02,0,.03,0h7.35v5.54H7.07v-14.14h7.83v8.56Z" style="fill:#212322;"/><path d="M30.73,195.55v7.43c0,.19.04.35.12.49s.19.25.32.35c.13.09.28.17.45.22s.34.08.52.08c.36,0,.69-.09.98-.28s.43-.47.43-.83v-7.45h7.83v8.92c0,.97-.26,1.81-.78,2.54-.52.72-1.22,1.33-2.1,1.81s-1.87.84-2.97,1.08c-1.1.24-2.23.36-3.38.36-.92,0-1.83-.08-2.72-.23-.9-.15-1.74-.38-2.53-.7-.79-.31-1.48-.7-2.07-1.16-.6-.46-1.06-1-1.4-1.62s-.51-1.32-.51-2.08v-8.92h7.83Z" style="fill:#212322;"/><path d="M53.29,195.55h7.26v14.14h-8.73l-2.38-6.79s0-.02,0-.02h-.02s0,0,0,.02v6.79h-7.26v-14.14h8.45l2.66,7.83h.03s0,0,0-.02v-7.81Z" style="fill:#212322;"/><path d="M71.48,210.26c-.99,0-1.91-.06-2.75-.19s-1.62-.31-2.33-.55c-.71-.24-1.35-.53-1.9-.87-.56-.34-1.05-.72-1.48-1.15-.43-.43-.78-.9-1.07-1.41-.28-.51-.49-1.05-.63-1.63-.14-.58-.21-1.19-.21-1.83,0-1.04.17-1.98.51-2.81s.82-1.55,1.44-2.15,1.36-1.11,2.23-1.51c.86-.4,1.81-.7,2.86-.9,1.04-.19,2.16-.29,3.34-.29,2.09,0,3.86.25,5.32.75,1.46.5,2.61,1.22,3.46,2.17.85.94,1.38,2.09,1.59,3.43l-8.01,1.3c0-.29-.06-.54-.19-.75s-.3-.37-.51-.5-.46-.22-.74-.28c-.28-.06-.59-.09-.91-.09-.45,0-.85.06-1.21.18-.35.12-.63.3-.84.53s-.31.53-.31.88c0,.21.04.41.11.59s.18.33.32.46c.14.13.31.24.5.32s.41.14.65.19c.24.04.5.07.77.07.67,0,1.23-.14,1.68-.41.45-.27.68-.66.68-1.18l8.01.81c-.14.93-.44,1.8-.91,2.62-.47.82-1.12,1.54-1.96,2.17-.84.63-1.87,1.12-3.11,1.48-1.24.36-2.7.54-4.38.54Z" style="fill:#212322;"/><path d="M92.92,195.55h7.83v14.14h-7.83v-4.6s0-.02,0-.03c0,0-.02,0-.03,0h-2.58s-.02,0-.02,0v4.63h-7.83v-14.14h7.83v5.53s0,0,.02,0h2.58s.02,0,.03,0c0,0,0-.02,0-.03v-5.51Z" style="fill:#212322;"/></svg>